<?xml version="1.0" encoding="UTF-8"?>
<svg version="1.1" xmlns="http://www.w3.org/2000/svg" width="32" height="32">
<path d="M0 0 C10.56 0 21.12 0 32 0 C32 10.56 32 21.12 32 32 C21.44 32 10.88 32 0 32 C0 21.44 0 10.88 0 0 Z " fill="#FC2F37" transform="translate(0,0)"/>
<path d="M0 0 C10.56 0 21.12 0 32 0 C32 1.98 32 3.96 32 6 C30.453125 6.12375 30.453125 6.12375 28.875 6.25 C24.67145259 7.06358982 22.45683162 8.564505 19 11 C18.01 11 17.02 11 16 11 C15.67 9.35 15.34 7.7 15 6 C13.35 5.67 11.7 5.34 10 5 C9.70996094 6.06541016 9.70996094 6.06541016 9.4140625 7.15234375 C9.15367188 8.07144531 8.89328125 8.99054687 8.625 9.9375 C8.36976562 10.85402344 8.11453125 11.77054688 7.8515625 12.71484375 C7 15 7 15 5 16 C6.32 18.97 7.64 21.94 9 25 C8.67 25.33 8.34 25.66 8 26 C5.36 26 2.72 26 0 26 C0 17.42 0 8.84 0 0 Z " fill="#FC3038" transform="translate(0,0)"/>
<path d="M0 0 C2.375 -0.1875 2.375 -0.1875 5 0 C7 3 7 3 8 6 C8.680625 5.38125 9.36125 4.7625 10.0625 4.125 C13.45881234 1.6680932 15.96018821 0.95054395 20 0 C15 5 15 5 12.6875 7.125 C9.31657901 10.73110152 6.63700084 14.69025362 3.8671875 18.76953125 C3.25101563 19.50558594 2.63484375 20.24164062 2 21 C1.01 21 0.02 21 -1 21 C-1.86375896 19.38007835 -2.71575854 17.75388139 -3.5625 16.125 C-4.03816406 15.22007813 -4.51382812 14.31515625 -5.00390625 13.3828125 C-5.49697266 12.20332031 -5.49697266 12.20332031 -6 11 C-5.67 10.34 -5.34 9.68 -5 9 C-4.34 9.33 -3.68 9.66 -3 10 C-2.87625 9.0925 -2.7525 8.185 -2.625 7.25 C-2.07890323 4.41029677 -1.42736197 2.47409409 0 0 Z " fill="#FEEDEE" transform="translate(10,5)"/>
<path d="M0 0 C2 1 2 1 3.125 3.375 C4 6 4 6 4 9 C2.35 8.67 0.7 8.34 -1 8 C-1.625 5.125 -1.625 5.125 -2 2 C-1.34 1.34 -0.68 0.68 0 0 Z " fill="#FEEBEB" transform="translate(19,17)"/>
<path d="M0 0 C1.32 0.99 2.64 1.98 4 3 C2.71937515 4.7074998 1.38232443 6.37373596 0 8 C-0.66 8 -1.32 8 -2 8 C-1.125 2.25 -1.125 2.25 0 0 Z " fill="#FB3E45" transform="translate(12,10)"/>
<path d="M0 0 C1.5 1.3125 1.5 1.3125 3 3 C3 3.99 3 4.98 3 6 C1.35 6 -0.3 6 -2 6 C-1.34 4.02 -0.68 2.04 0 0 Z " fill="#FEE5E6" transform="translate(4,20)"/>
</svg>
